name rise30.2954peak35.7071fall66.7804.mot
datacolumns 19
datarows 17
range 4.86998700000000 4.89665500000000
endheader
time	ground_force1_vx	ground_force1_vy	ground_force1_vz	ground_force1_px	ground_force1_py	ground_force1_pz	ground_force2_vx	ground_force2_vy	ground_force2_vz	ground_force2_px	ground_force2_py	ground_force2_pz	ground_torque1_x	ground_torque1_y	ground_torque1_z	ground_torque2_x	ground_torque2_y	ground_torque2_z	
4.86998700000000	-5.00914000000000	43.38546800000000	-11.16627000000000	0.27522800000000	0.00000000000000	0.11258500000000	-58.50936500000000	800.66955199999995	-57.36292000000000	0.10061500000000	0.00000000000000	-0.09393900000000	0.00000000000000	-7.10454000000000	0.00000000000000	0.00000000000000	-20.30819100000000	0.00000000000000	
4.87165400000000	-5.33682000000000	51.13580500000000	-12.55674100000000	0.28079600000000	0.00000000000000	0.11380100000000	-59.78191100000000	797.72772099999997	-57.08909600000000	0.09948900000000	0.00000000000000	-0.09385300000000	0.00000000000000	-8.11059400000000	0.00000000000000	0.00000000000000	-20.40897300000000	0.00000000000000	
4.87331800000000	-5.52410300000000	59.05576300000000	-13.81960300000000	0.28588400000000	0.00000000000000	0.11488200000000	-61.06847000000000	794.62243599999999	-56.79531500000000	0.09835500000000	0.00000000000000	-0.09376600000000	0.00000000000000	-9.06044000000000	0.00000000000000	0.00000000000000	-20.51218300000000	0.00000000000000	
4.87498300000000	-5.55561200000000	67.04803000000000	-14.92499500000000	0.29057900000000	0.00000000000000	0.11585100000000	-62.36629000000000	791.34965199999999	-56.48114600000000	0.09721500000000	0.00000000000000	-0.09367800000000	0.00000000000000	-9.93342200000000	0.00000000000000	0.00000000000000	-20.61732300000000	0.00000000000000	
4.87664900000000	-5.42263800000000	75.03676200000000	-15.85297700000000	0.29494800000000	0.00000000000000	0.11672600000000	-63.67249300000000	787.90533900000003	-56.14617800000000	0.09606900000000	0.00000000000000	-0.09358800000000	0.00000000000000	-10.71482300000000	0.00000000000000	0.00000000000000	-20.72386800000000	0.00000000000000	
4.87831800000000	-5.12293600000000	82.97017500000000	-16.59366300000000	0.29904500000000	0.00000000000000	0.11752100000000	-64.98408600000000	784.28549899999996	-55.79001600000000	0.09492000000000	0.00000000000000	-0.09349700000000	0.00000000000000	-11.39615200000000	0.00000000000000	0.00000000000000	-20.83127200000000	0.00000000000000	
4.87998900000000	-4.66003800000000	90.82073300000000	-17.14652300000000	0.30291100000000	0.00000000000000	0.11824900000000	-66.29796800000000	780.48617899999999	-55.41229400000000	0.09376900000000	0.00000000000000	-0.09340500000000	0.00000000000000	-11.97487600000000	0.00000000000000	0.00000000000000	-20.93896800000000	0.00000000000000	
4.88165600000000	-4.04221300000000	98.58329700000000	-17.51902900000000	0.30658100000000	0.00000000000000	0.11891800000000	-67.61093700000001	776.50349800000004	-55.01266900000000	0.09261900000000	0.00000000000000	-0.09331100000000	0.00000000000000	-12.45370900000000	0.00000000000000	0.00000000000000	-21.04636900000000	0.00000000000000	
4.88331700000000	-3.28122700000000	106.27176799999999	-17.72488800000000	0.31008000000000	0.00000000000000	0.11953600000000	-68.91970400000000	772.33366100000001	-54.59082800000000	0.09147100000000	0.00000000000000	-0.09321600000000	0.00000000000000	-12.83958800000000	0.00000000000000	0.00000000000000	-21.15286900000000	0.00000000000000	
4.88499100000000	-2.39102800000000	113.91473700000000	-17.78206200000000	0.31343200000000	0.00000000000000	0.12011000000000	-70.22089600000000	767.97298499999999	-54.14648800000000	0.09032700000000	0.00000000000000	-0.09311800000000	0.00000000000000	-13.14248200000000	0.00000000000000	0.00000000000000	-21.25784800000000	0.00000000000000	
4.88665700000000	-1.38649100000000	121.55070300000000	-17.71079600000000	0.31665400000000	0.00000000000000	0.12064400000000	-71.51107200000000	763.41791499999999	-53.67940500000000	0.08919000000000	0.00000000000000	-0.09301900000000	0.00000000000000	-13.37415400000000	0.00000000000000	0.00000000000000	-21.36067200000000	0.00000000000000	
4.88831800000000	-0.28231100000000	129.22330299999999	-17.53179600000000	0.31976100000000	0.00000000000000	0.12114400000000	-72.78673100000000	758.66505400000005	-53.18936800000000	0.08806000000000	0.00000000000000	-0.09291700000000	0.00000000000000	-13.54698700000000	0.00000000000000	0.00000000000000	-21.46069500000000	0.00000000000000	
4.88998900000000	0.90790200000000	136.97694700000000	-17.26468100000000	0.32276500000000	0.00000000000000	0.12161300000000	-74.04432300000001	753.71118000000001	-52.67620700000000	0.08694200000000	0.00000000000000	-0.09281400000000	0.00000000000000	-13.67295300000000	0.00000000000000	0.00000000000000	-21.55725900000000	0.00000000000000	
4.89165100000000	2.17227600000000	144.85312200000001	-16.92680000000000	0.32567600000000	0.00000000000000	0.12205300000000	-75.28026100000000	748.55327399999999	-52.13979700000000	0.08583500000000	0.00000000000000	-0.09270700000000	0.00000000000000	-13.76280000000000	0.00000000000000	0.00000000000000	-21.64970200000000	0.00000000000000	
4.89332000000000	3.50108300000000	152.88753900000000	-16.53240900000000	0.32850300000000	0.00000000000000	0.12246900000000	-76.49093200000000	743.18854099999999	-51.58005400000000	0.08474300000000	0.00000000000000	-0.09259800000000	0.00000000000000	-13.82545400000000	0.00000000000000	0.00000000000000	-21.73735500000000	0.00000000000000	
4.89498500000000	4.88689800000000	161.10819300000000	-16.09224500000000	0.33125200000000	0.00000000000000	0.12286200000000	-77.67270900000000	737.61443399999996	-50.99694300000000	0.08366800000000	0.00000000000000	-0.09248700000000	0.00000000000000	-13.86767400000000	0.00000000000000	0.00000000000000	-21.81954600000000	0.00000000000000	
4.89665500000000	6.32455900000000	169.53431100000000	-15.61342800000000	0.33392900000000	0.00000000000000	0.12323400000000	-78.82196200000000	731.82867699999997	-50.39047700000000	0.08261100000000	0.00000000000000	-0.09237200000000	0.00000000000000	-13.89392100000000	0.00000000000000	0.00000000000000	-21.89560100000000	0.00000000000000	
